<?xml version="1.0" encoding="UTF-8"?><svg id="_レイヤー_1" xmlns="http://www.w3.org/2000/svg" viewBox="0 0 22.68 29.76"><defs><style>.cls-1{fill:#9acd32;}.cls-2{fill:olive;}.cls-3{fill:#efefef;}</style></defs><path class="cls-1" d="M10.22,29.26c-.47,0-.93-.04-1.39-.12-2.79-.49-5.16-2.42-6.68-5.43C.6,20.65.12,16.86.8,13.02,2.06,5.88,7.07.5,12.46.5c.47,0,.93.04,1.39.12,2.79.49,5.16,2.42,6.68,5.43,1.54,3.06,2.02,6.85,1.35,10.69-1.26,7.14-6.27,12.52-11.66,12.52Z"/><path d="M12.46,1h0c.44,0,.88.04,1.31.11,5.54.98,8.96,7.95,7.62,15.54-1.22,6.9-6.02,12.11-11.17,12.11-.44,0-.88-.04-1.31-.11C3.37,27.67-.05,20.7,1.29,13.11,2.51,6.21,7.31,1,12.46,1M12.46,0C6.89,0,1.62,5.45.3,12.93c-1.44,8.15,2.34,15.62,8.43,16.7.49.09.99.13,1.48.13,5.57,0,10.84-5.45,12.16-12.93C23.81,8.68,20.03,1.2,13.94.13,13.45.04,12.95,0,12.46,0h0Z"/><path class="cls-2" d="M18.09,19.6c-.47,2.52-2.09,4.68-4.38,5.83-.36.18-.46.69-.27,1.03.22.37.66.45,1.03.27,2.6-1.3,4.54-3.86,5.07-6.72.07-.4-.11-.81-.52-.92-.36-.1-.85.12-.92.52h0Z"/><path class="cls-3" d="M5.03,10.33c.47-2.52,2.09-4.68,4.38-5.83.36-.18.46-.69.27-1.03-.22-.37-.66-.45-1.03-.27-2.6,1.3-4.54,3.86-5.07,6.72-.07.4.11.81.52.92.36.1.85-.12.92-.52h0Z"/></svg>